<?xml version="1.0" encoding="utf-8"?>
<!-- Generator: Adobe Illustrator 19.2.1, SVG Export Plug-In . SVG Version: 6.00 Build 0)  -->
<svg version="1.1" id="Layer_1" xmlns="http://www.w3.org/2000/svg" xmlns:xlink="http://www.w3.org/1999/xlink" x="0px" y="0px"
	 viewBox="0 0 612 792" style="enable-background:new 0 0 612 792;" xml:space="preserve">
<g>
	<path d="M309.4,396.8v1.3c0,0.5-0.2,1-0.6,1.4c-0.4,0.4-0.8,0.6-1.4,0.6h-5.6c-0.5,0-1-0.2-1.4-0.6c-0.4-0.4-0.6-0.8-0.6-1.4v-5.6
		c0-0.5,0.2-1,0.6-1.4c0.4-0.4,0.8-0.6,1.4-0.6h5.6c0.3,0,0.5,0.1,0.8,0.2c0.1,0,0.1,0.1,0.1,0.2c0,0.1,0,0.1-0.1,0.2l-0.3,0.3
		c-0.1,0.1-0.1,0.1-0.2,0.1c-0.1,0-0.2,0-0.3,0h-5.6c-0.3,0-0.5,0.1-0.8,0.3c-0.2,0.2-0.3,0.5-0.3,0.8v5.6c0,0.3,0.1,0.5,0.3,0.8
		s0.5,0.3,0.8,0.3h5.6c0.3,0,0.5-0.1,0.8-0.3s0.3-0.5,0.3-0.8v-0.8c0-0.1,0-0.1,0.1-0.1l0.4-0.4c0.1-0.1,0.1-0.1,0.2,0
		C309.4,396.6,309.4,396.7,309.4,396.8z M308.8,391.9l1.9,1.9l-4.5,4.5h-1.9v-1.9L308.8,391.9z M305.9,397.6l0.8-0.8l-1-1l-0.8,0.8
		v0.4h0.6v0.6H305.9z M308.9,392.8c-0.1-0.1-0.1-0.1-0.2,0l-2.3,2.3c-0.1,0.1-0.1,0.1,0,0.2c0.1,0.1,0.1,0.1,0.2,0l2.3-2.3
		C309,393,309,392.9,308.9,392.8z M311.8,392.7l-0.6,0.6l-1.9-1.9l0.6-0.6c0.1-0.1,0.3-0.2,0.5-0.2c0.2,0,0.3,0.1,0.5,0.2l1,1
		c0.1,0.1,0.2,0.3,0.2,0.5C311.9,392.5,311.9,392.6,311.8,392.7z"/>
</g>
</svg>
